<svg width="40" height="31" viewBox="0 0 40 31" fill="none" xmlns="http://www.w3.org/2000/svg">
<path d="M36.25 0H3.75003C1.68213 0 0 1.68545 0 3.75742V26.3018C0 28.3737 1.68213 30.0592 3.75003 30.0592H36.25C38.3179 30.0592 40 28.3737 40 26.3018V3.75742C40 1.68545 38.3179 0 36.25 0ZM36.25 2.50492C36.4198 2.50492 36.5814 2.54022 36.7291 2.60188L20 17.1297L3.27084 2.60188C3.41854 2.54031 3.58011 2.50492 3.74994 2.50492H36.25ZM36.25 27.5542H3.75003C3.06034 27.5542 2.49999 26.9928 2.49999 26.3017V5.24835L19.1809 19.7336C19.4165 19.9379 19.7083 20.0394 20 20.0394C20.2917 20.0394 20.5835 19.9379 20.8191 19.7336L37.5 5.24835V26.3018C37.4999 26.9928 36.9397 27.5542 36.25 27.5542Z" fill="#3D3D3D"/>
</svg>
