<svg width="160" height="160" viewBox="0 0 160 160" fill="none" xmlns="http://www.w3.org/2000/svg">
<path d="M139.247 82.1121H131.787V74.6474C131.787 73.9875 131.525 73.3546 131.059 72.888C130.592 72.4213 129.96 72.1592 129.301 72.1592H119.354C118.695 72.1592 118.063 72.4213 117.596 72.888C117.13 73.3546 116.868 73.9875 116.868 74.6474V82.1121H109.408C108.749 82.1121 108.116 82.3743 107.65 82.8409C107.184 83.3075 106.922 83.9404 106.922 84.6003V94.5533C106.922 95.2132 107.184 95.8461 107.65 96.3127C108.116 96.7793 108.749 97.0415 109.408 97.0415H116.868V104.506C116.868 105.166 117.13 105.799 117.596 106.266C118.063 106.732 118.695 106.994 119.354 106.994H129.301C129.96 106.994 130.592 106.732 131.059 106.266C131.525 105.799 131.787 105.166 131.787 104.506V97.0415H139.247C139.906 97.0415 140.539 96.7793 141.005 96.3127C141.471 95.8461 141.733 95.2132 141.733 94.5533V84.6003C141.733 83.9404 141.471 83.3075 141.005 82.8409C140.539 82.3743 139.906 82.1121 139.247 82.1121ZM136.76 92.065H129.301C128.641 92.065 128.009 92.3272 127.542 92.7938C127.076 93.2604 126.814 93.8933 126.814 94.5533V102.018H121.841V94.5533C121.841 93.8933 121.579 93.2604 121.113 92.7938C120.646 92.3272 120.014 92.065 119.354 92.065H111.895V87.0886H119.354C120.014 87.0886 120.646 86.8264 121.113 86.3598C121.579 85.8931 121.841 85.2603 121.841 84.6003V77.1356H126.814V84.6003C126.814 85.2603 127.076 85.8931 127.542 86.3598C128.009 86.8264 128.641 87.0886 129.301 87.0886H136.76V92.065Z" fill="#7D5A50"/>
<path d="M94.4637 126.253C94.3054 124.744 93.6966 123.317 92.7164 122.159C91.7363 121 90.4303 120.164 88.9685 119.759C89.4166 118.665 89.5957 117.479 89.4906 116.3C89.4567 115.998 89.3985 115.698 89.3166 115.405C90.3937 114.653 91.2657 113.644 91.8528 112.469C92.4644 111.083 92.6468 109.546 92.3764 108.055C92.106 106.565 91.3953 105.19 90.3361 104.108C91.2535 103.37 91.9929 102.434 92.4993 101.371C93.2664 99.6285 93.355 97.662 92.7478 95.8574C92.1406 94.0529 90.8813 92.5405 89.2171 91.6172L73.2288 82.3859C74.7418 81.5106 75.9947 80.2481 76.8591 78.7282L78.1024 76.5883C78.4388 76.0186 78.5371 75.3391 78.3759 74.6973C78.1912 74.0622 77.7738 73.5201 77.2072 73.1794L54.9529 60.3153C52.0884 58.676 48.6948 58.2292 45.5041 59.0712L43.2663 59.6684C42.3231 59.9258 41.3381 59.9924 40.3689 59.8642C39.3997 59.736 38.4658 59.4157 37.6219 58.9219L26.1093 52.2783C25.5346 51.9527 24.8548 51.8668 24.2172 52.0391C23.5796 52.2114 23.0355 52.6281 22.7027 53.1989L5.29711 83.3563C4.98022 83.9332 4.89147 84.6081 5.04846 85.2474C5.2263 85.8859 5.64541 86.4303 6.21712 86.7652L17.7297 93.4088C18.5766 93.8973 19.3181 94.5491 19.9114 95.3264C20.5047 96.1038 20.9379 96.9912 21.186 97.9373L21.8076 100.202C22.3993 102.255 23.4932 104.127 24.9903 105.651C23.7471 106.53 22.2609 107 20.7384 106.994H7.46038C6.80092 106.994 6.16846 107.257 5.70215 107.723C5.23583 108.19 4.97386 108.823 4.97386 109.483V144.318C4.97386 144.978 5.23583 145.611 5.70215 146.077C6.16846 146.544 6.80092 146.806 7.46038 146.806H20.7384C21.7186 146.801 22.6899 146.992 23.5952 147.368C24.5005 147.744 25.3214 148.298 26.0098 148.996L27.6509 150.638C28.8071 151.793 30.1798 152.709 31.6903 153.332C33.2008 153.956 34.8193 154.275 36.4532 154.271H72.1099C74.0883 154.271 75.9856 153.484 77.3846 152.085C78.7835 150.685 79.5694 148.786 79.5694 146.806C79.5707 145.959 79.4277 145.117 79.1467 144.318H82.056C84.0343 144.318 85.9317 143.531 87.3307 142.132C88.7296 140.732 89.5155 138.833 89.5155 136.853C89.5226 135.915 89.3451 134.985 88.9933 134.116C90.237 133.778 91.3692 133.117 92.2756 132.2C93.0572 131.433 93.6588 130.501 94.0372 129.473C94.4156 128.444 94.5613 127.345 94.4637 126.253ZM20.2162 89.0792L10.8669 83.6798L25.786 57.8519L35.1353 63.2514C37.9892 64.8952 41.377 65.3424 44.5592 64.4955L46.7971 63.8735C48.7148 63.376 50.751 63.653 52.4664 64.6448L72.5574 76.24C71.8971 77.3805 70.8134 78.2138 69.542 78.5586C68.2707 78.9035 66.9148 78.7319 65.7693 78.0813V78.0564L59.3292 74.3489C58.7642 74.0203 58.0927 73.9274 57.4599 74.0904C56.827 74.2534 56.2837 74.6591 55.9475 75.2198C55.2926 76.3683 54.3439 77.3216 53.199 77.9819C52.0541 78.6422 50.7542 78.9857 49.4328 78.977C48.1359 78.9706 46.8616 78.6368 45.7279 78.0066L43.5895 76.7625C43.3084 76.591 42.9959 76.4775 42.6703 76.4284C42.3448 76.3794 42.0128 76.3958 41.6936 76.4768C41.3745 76.5578 41.0748 76.7017 40.812 76.9001C40.5491 77.0985 40.3285 77.3474 40.1631 77.6322C39.9976 77.917 39.8906 78.232 39.8483 78.5587C39.8061 78.8854 39.8294 79.2173 39.9169 79.5349C40.0044 79.8525 40.1544 80.1494 40.3581 80.4082C40.5618 80.6671 40.815 80.8826 41.103 81.0423L43.2414 82.3113C45.7282 83.7328 48.6284 84.254 51.4542 83.7873C54.2799 83.3205 56.8589 81.8943 58.7573 79.7484L86.7555 95.9468C87.334 96.254 87.7785 96.7646 88.0035 97.3801C88.2284 97.9957 88.2179 98.6727 87.9739 99.281C87.8248 99.6135 87.6016 99.9074 87.3214 100.14C87.0413 100.373 86.7116 100.539 86.3576 100.625C85.7275 100.791 85.0572 100.702 84.4927 100.376L62.9595 87.9347C62.6765 87.7546 62.36 87.6337 62.0291 87.5793C61.6982 87.5248 61.3597 87.5379 61.034 87.6177C60.7082 87.6976 60.402 87.8425 60.1337 88.0438C59.8654 88.2452 59.6406 88.4988 59.4728 88.7893C59.305 89.0798 59.1976 89.4013 59.1572 89.7345C59.1167 90.0676 59.144 90.4055 59.2375 90.7278C59.3309 91.0501 59.4885 91.3501 59.7009 91.6099C59.9132 91.8696 60.1758 92.0837 60.473 92.2393L81.9814 104.68C81.988 104.68 81.9943 104.683 81.9989 104.688C82.0036 104.692 82.0062 104.699 82.0062 104.705L86.0841 107.019C86.6585 107.325 87.1031 107.829 87.3361 108.437C87.5691 109.045 87.5748 109.717 87.3522 110.329C87.1916 110.67 86.9531 110.968 86.656 111.2C85.2736 110.09 83.5547 109.484 81.7824 109.483H80.0667C79.9084 109.292 79.7243 109.125 79.5197 108.985L63.7303 99.8782C63.231 99.676 62.7017 99.5582 62.1638 99.5298H36.4532C33.6122 99.5392 30.8622 100.533 28.6704 102.342C27.6838 101.396 26.9707 100.201 26.6066 98.8829L26.0098 96.6435C25.1464 93.4585 23.0653 90.7413 20.2162 89.0792ZM70.419 109.483H63.3076C63.9144 108.429 64.3271 107.274 64.526 106.074L70.419 109.483ZM88.7447 128.667C88.5244 128.9 88.2582 129.084 87.9628 129.209C87.6674 129.333 87.3494 129.394 87.029 129.389H57.1908C56.5313 129.389 55.8988 129.651 55.4325 130.117C54.9662 130.584 54.7042 131.217 54.7042 131.877C54.7042 132.537 54.9662 133.17 55.4325 133.636C55.8988 134.103 56.5313 134.365 57.1908 134.365H82.056C82.7154 134.365 83.3479 134.627 83.8142 135.094C84.2805 135.56 84.5425 136.193 84.5425 136.853C84.5454 137.185 84.4782 137.514 84.3454 137.819C84.2126 138.123 84.0171 138.396 83.7716 138.62C83.5514 138.853 83.2851 139.037 82.9897 139.161C82.6943 139.286 82.3763 139.347 82.056 139.341H57.1908C56.5313 139.341 55.8988 139.604 55.4325 140.07C54.9662 140.537 54.7042 141.17 54.7042 141.83C54.7042 142.49 54.9662 143.123 55.4325 143.589C55.8988 144.056 56.5313 144.318 57.1908 144.318H72.1099C72.7693 144.318 73.4018 144.58 73.8681 145.047C74.3344 145.513 74.5964 146.146 74.5964 146.806C74.5993 147.138 74.5322 147.467 74.3993 147.772C74.2665 148.076 74.071 148.349 73.8256 148.573C73.6053 148.806 73.339 148.99 73.0436 149.114C72.7483 149.239 72.4303 149.3 72.1099 149.294H36.4532C35.473 149.3 34.5017 149.109 33.5964 148.733C32.6911 148.356 31.8701 147.803 31.1818 147.105L29.5407 145.463C28.3845 144.307 27.0118 143.392 25.5013 142.768C23.9908 142.145 22.3723 141.826 20.7384 141.83H9.9469V111.971H20.7384C22.3723 111.975 23.9908 111.656 25.5013 111.032C27.0118 110.409 28.3845 109.493 29.5407 108.338L31.1818 106.696C31.8701 105.998 32.6911 105.444 33.5964 105.068C34.5017 104.692 35.473 104.501 36.4532 104.506H59.6773C59.6733 105.825 59.1481 107.088 58.2164 108.021C57.2846 108.953 56.022 109.479 54.7042 109.483H47.2447C46.5852 109.483 45.9528 109.745 45.4865 110.212C45.0201 110.678 44.7582 111.311 44.7582 111.971C44.7582 112.631 45.0201 113.264 45.4865 113.73C45.9528 114.197 46.5852 114.459 47.2447 114.459H81.7824C82.4382 114.439 83.0791 114.658 83.5864 115.074C84.0938 115.49 84.4334 116.076 84.5425 116.723C84.5723 117.092 84.5185 117.462 84.385 117.807C84.2515 118.152 84.0418 118.462 83.7716 118.714C83.5514 118.947 83.2851 119.131 82.9897 119.256C82.6943 119.38 82.3763 119.441 82.056 119.436H57.1908C56.5313 119.436 55.8988 119.698 55.4325 120.164C54.9662 120.631 54.7042 121.264 54.7042 121.924C54.7042 122.584 54.9662 123.217 55.4325 123.683C55.8988 124.15 56.5313 124.412 57.1908 124.412H86.7555C87.4113 124.392 88.0521 124.61 88.5595 125.027C89.0669 125.443 89.4065 126.029 89.5155 126.676C89.5454 127.045 89.4916 127.415 89.3581 127.76C89.2246 128.105 89.0149 128.415 88.7447 128.667Z" fill="#7D5A50"/>
<path d="M148.395 62.3057C145.329 58.8415 141.262 56.4158 136.759 55.3635V52.2533C136.751 50.714 136.269 49.2146 135.379 47.9591C134.489 46.7036 133.234 45.7529 131.785 45.2364V34.3878C133.43 33.7906 134.812 32.6341 135.691 31.1204C136.57 29.6066 136.889 27.832 136.593 26.1066C136.297 24.3813 135.404 22.815 134.071 21.6816C132.737 20.5482 131.048 19.9198 129.299 19.9062H79.5686C78.9091 19.9062 78.2766 20.1684 77.8103 20.635C77.344 21.1017 77.082 21.7346 77.082 22.3945C77.082 25.6941 78.3919 28.8585 80.7235 31.1917C83.055 33.5249 86.2173 34.8356 89.5146 34.8356H116.866V45.2364C115.417 45.7529 114.163 46.7036 113.273 47.9591C112.383 49.2146 111.901 50.714 111.893 52.2533V55.3635C106.516 56.6205 101.795 59.8259 98.6404 64.3611C95.4858 68.8963 94.1216 74.4399 94.8109 79.9224L101.972 137.152C102.045 137.754 102.335 138.31 102.789 138.713C103.242 139.116 103.827 139.34 104.434 139.341H144.218C144.825 139.34 145.41 139.116 145.863 138.713C146.317 138.31 146.607 137.754 146.68 137.152L153.841 79.9224C154.231 76.7675 153.948 73.5657 153.009 70.5288C152.07 67.4918 150.498 64.689 148.395 62.3057ZM89.5146 29.8592C87.9726 29.8549 86.4694 29.3747 85.21 28.4841C83.9507 27.5936 82.9966 26.3359 82.4778 24.8827H129.299C129.958 24.8827 130.591 25.1449 131.057 25.6115C131.524 26.0781 131.785 26.711 131.785 27.3709C131.785 28.0309 131.524 28.6638 131.057 29.1304C130.591 29.597 129.958 29.8592 129.299 29.8592H89.5146ZM126.812 49.765H129.299C129.958 49.765 130.591 50.0272 131.057 50.4938C131.524 50.9604 131.785 51.5933 131.785 52.2533V54.7415H126.812V49.765ZM121.839 44.7886V34.8356H126.812V44.7886H121.839ZM116.866 52.2533C116.866 51.5933 117.128 50.9604 117.595 50.4938C118.061 50.0272 118.693 49.765 119.353 49.765H121.839V54.7415H116.866V52.2533ZM148.893 79.3003L143.273 124.412H114.38C113.72 124.412 113.088 124.674 112.622 125.141C112.155 125.607 111.893 126.24 111.893 126.9C111.893 127.56 112.155 128.193 112.622 128.66C113.088 129.126 113.72 129.388 114.38 129.388H142.652L142.03 134.365H106.622L99.7591 79.3003C99.4492 76.85 99.6641 74.3618 100.39 72.001C101.115 69.6403 102.335 67.4613 103.967 65.6088C105.6 63.7563 107.608 62.2729 109.857 61.2572C112.107 60.2415 114.547 59.7168 117.016 59.7179H131.636C134.104 59.7168 136.545 60.2415 138.794 61.2572C141.044 62.2729 143.052 63.7563 144.684 65.6088C146.317 67.4613 147.537 69.6403 148.262 72.001C148.988 74.3618 149.203 76.85 148.893 79.3003Z" fill="#7D5A50"/>
<path d="M82.6918 43.1254C81.3391 44.6332 74.5957 52.399 74.5957 57.2286C74.5957 59.8683 75.6436 62.3999 77.5088 64.2664C79.3741 66.133 81.9039 67.1816 84.5418 67.1816C87.1796 67.1816 89.7095 66.133 91.5747 64.2664C93.44 62.3999 94.4879 59.8683 94.4879 57.2286C94.4879 52.399 87.7444 44.6332 86.3918 43.1254C86.1525 42.8758 85.8653 42.6772 85.5474 42.5415C85.2294 42.4059 84.8874 42.3359 84.5418 42.3359C84.1962 42.3359 83.8541 42.4059 83.5362 42.5415C83.2183 42.6772 82.9311 42.8758 82.6918 43.1254ZM84.5418 62.2051C83.2228 62.2051 81.9579 61.6808 81.0253 60.7475C80.0927 59.8143 79.5687 58.5485 79.5687 57.2286C79.5687 55.6436 81.9036 51.9412 84.5418 48.6418C87.1825 51.9561 89.5148 55.6859 89.5148 57.2286C89.5148 58.5485 88.9909 59.8143 88.0583 60.7475C87.1256 61.6808 85.8607 62.2051 84.5418 62.2051Z" fill="#7D5A50"/>
</svg>
