<svg width="40" height="40" viewBox="0 0 40 40" fill="none" xmlns="http://www.w3.org/2000/svg">
<g clip-path="url(#clip0_87_115)">
<path d="M39.2951 12.321C39.2035 10.2429 38.8675 8.81422 38.3861 7.57624C37.8894 6.26216 37.1254 5.08566 36.1244 4.10763C35.1464 3.11438 33.9621 2.34258 32.6632 1.85372C31.4181 1.37231 29.9969 1.03626 27.9187 0.944631C25.8251 0.845246 25.1604 0.822266 19.8504 0.822266C14.5403 0.822266 13.8757 0.845246 11.7898 0.936871C9.71166 1.0285 8.28297 1.36485 7.04529 1.84596C5.7309 2.34258 4.55441 3.10662 3.57638 4.10763C2.58313 5.08566 1.81163 6.26992 1.32247 7.56878C0.841063 8.81422 0.505006 10.2352 0.413381 12.3133C0.313996 14.4069 0.291016 15.0716 0.291016 20.3816C0.291016 25.6917 0.313996 26.3564 0.405621 28.4422C0.497246 30.5204 0.833602 31.9491 1.31501 33.187C1.81163 34.5011 2.58313 35.6776 3.57638 36.6557C4.55441 37.6489 5.73866 38.4207 7.03753 38.9096C8.28297 39.391 9.7039 39.727 11.7823 39.8187C13.8679 39.9106 14.5329 39.9333 19.8429 39.9333C25.153 39.9333 25.8176 39.9106 27.9035 39.8187C29.9816 39.727 31.4103 39.391 32.648 38.9096C35.2765 37.8933 37.3546 35.8152 38.3708 33.187C38.8519 31.9416 39.1883 30.5204 39.2799 28.4422C39.3715 26.3564 39.3945 25.6917 39.3945 20.3816C39.3945 15.0716 39.3868 14.4069 39.2951 12.321ZM35.7731 28.2894C35.6889 30.1995 35.3681 31.231 35.1007 31.9186C34.4435 33.6225 33.0912 34.9748 31.3874 35.632C30.6997 35.8994 29.6608 36.2202 27.7582 36.3041C25.6953 36.396 25.0766 36.4187 19.8581 36.4187C14.6397 36.4187 14.0133 36.396 11.9578 36.3041C10.0477 36.2202 9.01627 35.8994 8.32863 35.632C7.48073 35.3186 6.70893 34.822 6.08248 34.1725C5.43305 33.5383 4.93642 32.7743 4.62305 31.9264C4.35564 31.2387 4.0348 30.1995 3.95094 28.2972C3.85901 26.2343 3.83633 25.6153 3.83633 20.3969C3.83633 15.1784 3.85901 14.552 3.95094 12.4968C4.0348 10.5867 4.35564 9.55528 4.62305 8.86765C4.93642 8.01944 5.43305 7.24795 6.09024 6.6212C6.72415 5.97176 7.48819 5.47514 8.33639 5.16206C9.02403 4.89465 10.0632 4.57381 11.9656 4.48965C14.0285 4.39802 14.6475 4.37504 19.8656 4.37504C25.0918 4.37504 25.7105 4.39802 27.7659 4.48965C29.676 4.57381 30.7075 4.89465 31.3951 5.16206C32.243 5.47514 33.0148 5.97176 33.6413 6.6212C34.2907 7.25541 34.7873 8.01944 35.1007 8.86765C35.3681 9.55528 35.6889 10.5942 35.7731 12.4968C35.8647 14.5597 35.8877 15.1784 35.8877 20.3969C35.8877 25.6153 35.8647 26.2265 35.7731 28.2894Z" fill="#7D5A50"/>
<path d="M19.8498 10.335C14.3031 10.335 9.80273 14.835 9.80273 20.3821C9.80273 25.9291 14.3031 30.4292 19.8498 30.4292C25.3969 30.4292 29.8969 25.9291 29.8969 20.3821C29.8969 14.835 25.3969 10.335 19.8498 10.335ZM19.8498 26.8994C16.2514 26.8994 13.3325 23.9808 13.3325 20.3821C13.3325 16.7833 16.2514 13.8648 19.8498 13.8648C23.4486 13.8648 26.3671 16.7833 26.3671 20.3821C26.3671 23.9808 23.4486 26.8994 19.8498 26.8994Z" fill="#7D5A50"/>
<path d="M32.6406 9.93831C32.6406 11.2336 31.5903 12.2839 30.2948 12.2839C28.9995 12.2839 27.9492 11.2336 27.9492 9.93831C27.9492 8.64273 28.9995 7.59277 30.2948 7.59277C31.5903 7.59277 32.6406 8.64273 32.6406 9.93831Z" fill="#7D5A50"/>
</g>
<defs>
<clipPath id="clip0_87_115">
<rect width="39.1111" height="39.1111" fill="white" transform="translate(0.222656 0.822266)"/>
</clipPath>
</defs>
</svg>
