<svg width="160" height="160" viewBox="0 0 160 160" fill="none" xmlns="http://www.w3.org/2000/svg">
<g clip-path="url(#clip0_87_98)">
<path d="M33.5233 63.4443C34.0523 57.1388 30.5942 48.9453 25.6507 44.7912C22.5002 42.1438 19.8378 42.1151 18.1575 42.5574C18.1569 42.5577 18.1563 42.5577 18.1554 42.5581C14.8961 43.4202 12.5607 45.4864 11.4023 48.5335C8.9114 55.0838 12.4071 64.2057 15.1945 68.4154C17.4902 71.8887 20.0958 75.2487 22.343 77.6343C25.0483 80.506 27.0369 81.8226 28.7464 81.8226C29.0926 81.8226 29.4277 81.7685 29.755 81.6624C30.4816 81.4267 32.1579 80.5558 32.0314 77.5646C31.9042 74.5956 32.2682 72.3695 32.6897 69.792C32.9828 68.0002 33.3147 65.9698 33.5233 63.4443ZM28.8772 63.0567C28.6839 65.4 28.3812 67.2497 28.0887 69.0384C27.7225 71.2769 27.3735 73.4127 27.3452 76.0275C25.4144 74.2911 22.3029 70.713 19.0819 65.8398C16.6128 62.1106 14.0843 54.598 15.7596 50.1926C16.3871 48.5429 17.5266 47.5501 19.3458 47.0686C20.516 46.7601 21.9196 47.7479 22.6525 48.3637C26.0168 51.1907 29.3211 57.7683 28.8772 63.0567Z" fill="#7D5A50"/>
<path d="M77.2383 40.9255V117.844C77.2383 119.132 78.2817 120.176 79.5694 120.176C80.8571 120.176 81.9005 119.132 81.9005 117.844V40.9255C81.9005 39.6372 80.8571 38.5928 79.5694 38.5928C78.282 38.5928 77.2383 39.6372 77.2383 40.9255Z" fill="#7D5A50"/>
<path d="M125.606 63.4446C125.818 65.9633 126.15 67.9875 126.443 69.7737C126.868 72.3574 127.234 74.5884 127.107 77.5622C126.975 80.5531 128.651 81.4255 129.378 81.6619C129.706 81.7682 130.041 81.8227 130.388 81.8227C132.097 81.8227 134.086 80.5061 136.792 77.6353C139.043 75.2478 141.649 71.8872 143.943 68.417C146.73 64.2075 150.224 55.0872 147.732 48.5335C146.574 45.4867 144.241 43.4202 140.983 42.5581C140.982 42.5577 140.982 42.5577 140.981 42.5574C139.301 42.1151 136.636 42.1435 133.482 44.7937C128.537 48.9494 125.077 57.1416 125.606 63.4446ZM136.481 48.3662C137.12 47.8291 138.268 47.0104 139.328 47.0104C139.485 47.0104 139.642 47.0288 139.794 47.0689C141.61 47.5504 142.748 48.5429 143.375 50.1923C145.051 54.6011 142.524 62.1125 140.055 65.8417C136.836 70.7115 133.725 74.2883 131.793 76.0257C131.764 73.4031 131.412 71.2614 131.044 69.017C130.751 67.2332 130.448 65.3885 130.251 63.0539C129.809 57.7714 133.115 51.1947 136.481 48.3662Z" fill="#7D5A50"/>
<path d="M53.1164 56.0692C54.0532 55.1856 54.0967 53.7091 53.2137 52.7717C52.3306 51.8339 50.8549 51.791 49.9184 52.6743L44.8434 57.462C43.9066 58.3456 43.8631 59.8221 44.7461 60.7595C45.2049 61.2463 45.8231 61.492 46.4426 61.492C47.0163 61.492 47.591 61.2814 48.0414 60.8569L53.1164 56.0692Z" fill="#7D5A50"/>
<path d="M105.916 52.7717C105.033 53.7091 105.077 55.1856 106.013 56.0692L111.088 60.8569C111.539 61.2817 112.114 61.492 112.687 61.492C113.307 61.492 113.925 61.2463 114.384 60.7595C115.267 59.8221 115.223 58.3456 114.286 57.462L109.211 52.6743C108.274 51.791 106.8 51.8339 105.916 52.7717Z" fill="#7D5A50"/>
<path d="M150.978 33.5745C147.457 30.6739 143.263 29.5567 138.851 30.3417C137.583 30.5675 136.738 31.7786 136.964 33.047C137.19 34.3151 138.398 35.1602 139.667 34.935C142.695 34.3966 145.581 35.1713 148.014 37.1762C151.938 40.4091 154.352 46.4567 154.47 53.3522C154.648 64.1667 148.324 79.869 130.043 91.5064C129.469 91.8719 129.083 92.4703 128.986 93.1443C125.508 117.481 90.2335 132.276 79.5669 132.563C73.7802 132.411 61.6401 128.179 51.2657 121.328C50.1906 120.619 48.7447 120.915 48.036 121.99C47.3271 123.066 47.6233 124.513 48.6977 125.222C60.3477 132.915 73.0199 137.085 79.5163 137.228C79.5334 137.228 79.5501 137.229 79.5672 137.229C79.585 137.229 79.6024 137.229 79.6201 137.228C85.9163 137.086 98.2764 133.075 109.718 125.684C119.2 119.558 130.888 109.288 133.432 94.869C141.573 89.5152 148.231 82.7357 152.729 75.2095C157.035 68.0036 159.249 60.4188 159.132 53.2735C158.99 45.0282 155.942 37.6642 150.978 33.5745Z" fill="#7D5A50"/>
<path d="M43.158 115.073C35.632 108.271 31.2523 100.892 30.1408 93.1428C30.0441 92.4691 29.6584 91.8716 29.0853 91.5062C10.7792 79.8469 4.48988 63.6666 4.66673 53.3516C4.81841 44.0777 9.17199 36.5495 15.2537 35.0451C18.411 34.2644 21.9474 35.1372 25.4795 37.57C29.8508 40.5808 34.0695 45.7653 38.0181 52.9796C38.3588 53.602 38.9639 54.0353 39.6626 54.1572C40.362 54.2791 41.0774 54.0757 41.6083 53.6054L64.8666 32.9929C69.4415 28.9455 74.3878 26.8231 79.5694 26.684C84.7513 26.8234 89.6976 28.9455 94.27 32.9914L117.53 53.6054C118.061 54.076 118.777 54.2788 119.477 54.1566C120.176 54.0343 120.782 53.6002 121.122 52.9772C124.34 47.0797 127.792 42.4942 131.379 39.3476C132.347 38.4985 132.444 37.0245 131.595 36.0556C130.747 35.0871 129.274 34.9897 128.306 35.8392C124.851 38.8695 121.551 43.0221 118.471 48.2078L97.3595 29.4976C91.923 24.6872 85.9563 22.1707 79.6253 22.0183C79.588 22.0173 79.551 22.0173 79.5131 22.0183C73.1824 22.1707 67.2157 24.6872 61.7771 29.4988L40.6653 48.2091C36.7612 41.6405 32.5499 36.7757 28.1233 33.727C23.4614 30.5159 18.6251 29.4061 14.1348 30.5159C5.87269 32.56 0.194417 41.7061 0.00482031 53.2736C-0.117641 60.4148 2.09536 68.0002 6.40357 75.2095C10.9001 82.7342 17.5575 89.5143 25.6962 94.869C27.1933 103.329 32.0122 111.286 40.0328 118.535C40.4788 118.938 41.0374 119.136 41.5946 119.136C42.2309 119.136 42.8649 118.877 43.325 118.367C44.1881 117.411 44.1132 115.936 43.158 115.073Z" fill="#7D5A50"/>
</g>
<defs>
<clipPath id="clip0_87_98">
<rect width="159.137" height="159.247" fill="white"/>
</clipPath>
</defs>
</svg>
