<svg width="160" height="160" viewBox="0 0 160 160" fill="none" xmlns="http://www.w3.org/2000/svg">
<g clip-path="url(#clip0_87_62)">
<path d="M142.159 64.6359C145.004 61.79 146.766 57.8601 146.766 53.5262C146.766 45.1322 140.156 38.2541 131.871 37.8305C129.165 31.576 123.232 27.3385 116.417 26.8225C119.26 23.9769 121.02 20.049 121.02 15.7173C121.02 7.05138 113.975 0.000976563 105.315 0.000976563C96.6547 0.000976563 89.6092 7.05138 89.6092 15.7173C89.6092 20.049 91.3696 23.9769 94.212 26.8225C88.0135 27.2922 82.5437 30.8404 79.5689 36.1854C76.5941 30.8407 71.125 27.2925 64.9267 26.8225C67.7691 23.9769 69.5296 20.049 69.5296 15.717C69.5293 7.05107 62.4837 0.000976562 53.8238 0.000976562C49.7248 0.000976562 45.8433 1.57385 42.8937 4.43003C41.9684 5.3261 41.9445 6.80287 42.8396 7.72849C43.7348 8.65411 45.2105 8.67868 46.1358 7.78261C48.2111 5.77305 50.9413 4.66641 53.8238 4.66641C59.913 4.66641 64.8671 9.62359 64.8671 15.7173C64.8671 21.8109 59.913 26.7681 53.8238 26.7681C47.8381 26.7681 42.8856 21.899 42.7834 15.9138C42.7613 14.6256 41.7129 13.602 40.4128 13.6212C39.1254 13.6433 38.0997 14.7052 38.1218 15.9935C38.1936 20.2079 39.9577 24.0317 42.752 26.8207C35.924 27.3258 29.9769 31.5664 27.2662 37.8305C18.9815 38.2541 12.3714 45.1322 12.3714 53.5262C12.3714 57.8601 14.1334 61.79 16.9786 64.6359C7.49654 65.3562 0 73.3011 0 82.971V111.076C0 112.364 1.04372 113.409 2.33111 113.409H48.0784C46.6344 117.163 45.8402 121.238 45.8402 125.496C45.8402 144.107 60.9707 159.248 79.5686 159.248C98.1665 159.248 113.297 144.107 113.297 125.496C113.297 121.238 112.503 117.163 111.059 113.409H156.806C158.094 113.409 159.137 112.364 159.137 111.076V82.971C159.137 73.3011 151.641 65.3562 142.159 64.6359ZM142.104 53.5262C142.104 59.6156 137.156 64.5703 131.072 64.5768C124.98 64.5842 120.016 59.624 120.017 53.5262C120.017 47.4329 124.971 42.4754 131.06 42.4754C137.149 42.4754 142.104 47.4329 142.104 53.5262ZM105.314 4.66641C111.404 4.66641 116.358 9.6239 116.358 15.7173C116.358 21.8128 111.399 26.7719 105.308 26.7681C99.2221 26.765 94.2711 21.8088 94.2711 15.7173C94.2711 9.6239 99.2252 4.66641 105.314 4.66641ZM95.6191 31.4335H115.011C120.026 31.4335 124.536 34.1311 126.937 38.3633C120.271 40.1806 115.355 46.288 115.355 53.5262C115.355 57.8601 117.117 61.79 119.961 64.6359C113.664 65.1139 108.245 68.7778 105.313 74.0202C102.383 68.7778 96.9637 65.1136 90.6672 64.6359C93.5121 61.79 95.2741 57.8601 95.2741 53.5262C95.2741 46.2883 90.3579 40.1812 83.6928 38.3636C86.0939 34.1314 90.6035 31.4335 95.6191 31.4335ZM56.154 92.3299H62.1909V96.5792C60.005 97.8995 57.9807 99.4615 56.154 101.227V92.3299ZM66.8535 83.3048C66.8535 82.0165 65.8098 80.972 64.5224 80.972C63.235 80.972 62.1913 82.0165 62.1913 83.3048V87.6645H56.1549V82.971C56.1549 75.4009 62.3078 69.2422 69.8712 69.2422H89.266C96.8291 69.2422 102.982 75.4009 102.982 82.971V87.6645H96.946V83.3048C96.946 82.0165 95.9022 80.972 94.6148 80.972C93.3275 80.972 92.2837 82.0165 92.2837 83.3048L92.284 94.2368C88.3578 92.6316 84.0652 91.7442 79.5686 91.7442C75.0721 91.7442 70.7794 92.6316 66.8532 94.2368L66.8535 83.3048ZM79.5686 42.4754C85.6578 42.4754 90.6119 47.4329 90.6119 53.5262C90.6119 59.6156 85.6643 64.5703 79.5804 64.5768C73.4884 64.5842 68.5244 59.624 68.525 53.5262C68.5254 47.4329 73.4794 42.4754 79.5686 42.4754ZM96.9463 92.3299H102.983V101.227C101.156 99.4615 99.1322 97.8998 96.9463 96.5792V92.3299ZM44.1264 31.4335H63.5181C68.5338 31.4335 73.0434 34.1314 75.4444 38.3636C68.7793 40.1812 63.8631 46.2883 63.8631 53.5262C63.8631 57.8601 65.6251 61.7897 68.47 64.6359C62.1732 65.1136 56.7545 68.7778 53.8238 74.0202C50.8925 68.7778 45.4732 65.1139 39.1757 64.6359C42.0206 61.79 43.7826 57.8601 43.7826 53.5262C43.7826 46.288 38.8662 40.1806 32.2004 38.3633C34.6015 34.1311 39.1108 31.4335 44.1264 31.4335ZM28.0768 42.4754C34.166 42.4754 39.1201 47.4329 39.1201 53.5262C39.1201 59.6156 34.1725 64.5703 28.0887 64.5768C21.9967 64.5842 17.0327 59.624 17.0333 53.5262C17.0336 47.4329 21.9877 42.4754 28.0768 42.4754ZM40.7913 108.743H15.3605V105.978C15.3605 104.69 14.3168 103.645 13.0294 103.645C11.742 103.645 10.6982 104.69 10.6982 105.978V108.743H4.66222V92.3299H10.6982V95.0918C10.6982 96.3801 11.742 97.4245 13.0294 97.4245C14.3168 97.4245 15.3605 96.3801 15.3605 95.0918L15.3617 83.3051C15.3617 82.0168 14.318 80.9724 13.0306 80.9724C11.7432 80.9724 10.6995 82.0168 10.6995 83.3051V87.6648H4.66222V82.9713C4.66222 75.4012 10.8167 69.2425 18.3816 69.2425H37.7733C45.3383 69.2425 51.4927 75.4012 51.4927 82.9713V87.6648H45.4542V83.3051C45.4542 82.0168 44.4105 80.9724 43.1231 80.9724C41.8357 80.9724 40.792 82.0168 40.792 83.3051L40.7913 108.743ZM45.4536 108.743V92.3299H51.4915V106.815C51.0725 107.444 50.6731 108.086 50.2961 108.743H45.4536ZM79.5686 154.582C63.5414 154.582 50.5024 141.534 50.5024 125.496C50.5024 109.458 63.5414 96.4097 79.5686 96.4097C95.5958 96.4097 108.635 109.458 108.635 125.496C108.635 141.534 95.5958 154.582 79.5686 154.582ZM107.645 106.815V92.3299H113.683V108.743H108.841C108.464 108.086 108.064 107.444 107.645 106.815ZM148.439 108.743V105.393C148.439 104.105 147.395 103.06 146.108 103.06C144.82 103.06 143.777 104.105 143.777 105.393V108.743H118.346L118.345 83.3048C118.345 82.0165 117.302 80.972 116.014 80.972C114.727 80.972 113.683 82.0165 113.683 83.3048V87.6645H107.645V82.971C107.645 75.4009 113.799 69.2422 121.364 69.2422H140.756C148.321 69.2422 154.475 75.4009 154.475 82.971V87.6645H148.438V83.3048C148.438 82.0165 147.394 80.972 146.107 80.972C144.819 80.972 143.775 82.0165 143.775 83.3048L143.777 94.5071C143.777 95.7954 144.82 96.8398 146.108 96.8398C147.395 96.8398 148.439 95.7954 148.439 94.5071V92.3299H154.475V108.743H148.439Z" fill="#7D5A50"/>
<path d="M97.0826 116.586C97.0826 114.285 96.1868 112.121 94.5606 110.493C92.9344 108.866 90.7721 107.97 88.4721 107.97C86.172 107.97 84.0097 108.866 82.3838 110.494L79.5685 113.311L76.7537 110.494C75.1272 108.866 72.9649 107.97 70.6649 107.97C68.3652 107.97 66.2028 108.866 64.5766 110.493C62.9505 112.121 62.0547 114.285 62.0547 116.586C62.0547 118.888 62.9501 121.052 64.5766 122.679L67.3917 125.496L64.5766 128.313C62.9505 129.94 62.0547 132.104 62.0547 134.406C62.0547 136.708 62.9505 138.871 64.5766 140.499C66.2028 142.126 68.3652 143.022 70.6652 143.022C72.9652 143.022 75.1275 142.126 76.7537 140.499L79.5688 137.682L82.3835 140.498C84.0094 142.126 86.1717 143.022 88.4724 143.022C90.7721 143.022 92.9344 142.126 94.5609 140.499C96.1874 138.871 97.0832 136.708 97.0832 134.406C97.0832 132.104 96.1874 129.94 94.5609 128.313L91.7459 125.496L94.5609 122.679C96.1868 121.052 97.0826 118.888 97.0826 116.586ZM91.2638 119.38L86.8005 123.847C85.8901 124.758 85.8901 126.235 86.8005 127.146L91.2641 131.612C92.0097 132.358 92.4206 133.351 92.4206 134.406C92.4206 135.461 92.0101 136.453 91.2641 137.2C90.5181 137.946 89.5266 138.357 88.4721 138.357C87.4172 138.357 86.426 137.946 85.6803 137.2L81.217 132.733C80.78 132.296 80.187 132.05 79.5688 132.05C78.9506 132.05 78.3575 132.296 77.9205 132.733L73.4572 137.2C72.7116 137.946 71.7198 138.357 70.6652 138.357C69.6106 138.357 68.6191 137.946 67.8734 137.2C66.334 135.659 66.334 133.153 67.8734 131.612L72.3367 127.146C73.2471 126.235 73.2471 124.758 72.3367 123.847L67.8734 119.38C67.1278 118.634 66.7172 117.642 66.7172 116.587C66.7172 115.531 67.1278 114.54 67.8738 113.793C68.6194 113.047 69.6109 112.636 70.6655 112.636C71.7201 112.636 72.7116 113.047 73.4575 113.793L77.9208 118.26C78.8312 119.171 80.3073 119.171 81.2173 118.26L85.6809 113.793C86.4266 113.047 87.4181 112.636 88.4724 112.636C89.527 112.636 90.5185 113.047 91.2641 113.793C92.0101 114.54 92.4206 115.532 92.4206 116.587C92.4206 117.642 92.0097 118.634 91.2638 119.38Z" fill="#7D5A50"/>
</g>
<defs>
<clipPath id="clip0_87_62">
<rect width="159.137" height="159.247" fill="white"/>
</clipPath>
</defs>
</svg>
