<svg width="160" height="160" viewBox="0 0 160 160" fill="none" xmlns="http://www.w3.org/2000/svg">
<path d="M100.786 44.2009C104.88 44.2009 108.212 40.8668 108.212 36.7694C108.212 32.672 104.88 29.3379 100.786 29.3379C96.6912 29.3379 93.3594 32.672 93.3594 36.7694C93.3594 40.8668 96.6912 44.2009 100.786 44.2009ZM100.786 33.5845C102.541 33.5845 103.968 35.0129 103.968 36.7694C103.968 38.5259 102.541 39.9543 100.786 39.9543C99.0305 39.9543 97.603 38.5259 97.603 36.7694C97.603 35.0129 99.0305 33.5845 100.786 33.5845Z" fill="#7D5A50"/>
<path d="M144.284 61.1877H133.053C132.995 61.1283 132.964 61.0529 132.899 60.9993L128.228 57.1652C123.049 52.9133 116.507 50.5713 109.808 50.5713H88.0554C83.9608 50.5713 80.629 53.7292 80.629 57.61C80.629 58.9153 81.0062 60.1388 81.6586 61.1877H77.4585C78.1173 60.1372 78.5072 58.9185 78.5072 57.61C78.5072 53.7292 75.1754 50.5713 71.0808 50.5713H49.3278C42.6286 50.5713 36.087 52.9133 30.9077 57.1652L26.237 60.9993C26.2094 61.0216 26.1983 61.055 26.1723 61.0784C26.1309 61.1161 26.0879 61.1474 26.0497 61.1877H14.8523C13.6805 61.1877 12.7305 62.1384 12.7305 63.311V99.407C12.7305 100.58 13.6805 101.53 14.8523 101.53H15.5716C13.7484 105.769 12.7305 110.432 12.7305 115.332C12.7305 134.65 28.4357 150.366 47.7407 150.366C67.0456 150.366 82.7508 134.65 82.7508 115.332C82.7508 108.726 80.8805 102.563 77.6914 97.2837H91.2382C92.41 97.2837 93.36 96.333 93.36 95.1604C93.36 93.9878 92.41 93.0371 91.2382 93.0371H74.7261C72.722 90.6123 70.3848 88.48 67.8073 86.6672H89.1163H91.2382C92.41 86.6672 93.36 85.7165 93.36 84.5439C93.36 83.3713 92.41 82.4206 91.2382 82.4206H89.1163H67.0339H60.6424C58.7933 82.4206 57.2889 80.9922 57.2889 79.2357C57.2889 77.4792 58.7933 76.0508 60.6424 76.0508H67.0339H89.1163H91.2382C92.41 76.0508 93.36 75.1001 93.36 73.9275C93.36 72.7549 92.41 71.8042 91.2382 71.8042H89.1163H67.0339C65.1699 71.8042 63.6544 70.3757 63.6544 68.6193C63.6544 66.8628 65.1699 65.4343 67.0339 65.4343H71.0299H106.091C107.245 65.4343 108.187 64.5118 108.213 63.3577C108.238 62.2027 107.336 61.2398 106.183 61.1899L88.0554 60.4005C86.3001 60.4005 84.8727 59.1483 84.8727 57.6095C84.8727 56.0701 86.3001 54.8173 88.0554 54.8173H109.808C115.528 54.8173 121.114 56.8175 125.536 60.4467L129.431 63.6439V97.4971C125.106 101.459 119.548 103.653 113.656 103.653H89.1163C87.9446 103.653 86.9945 104.604 86.9945 105.776C86.9945 106.949 87.9446 107.9 89.1163 107.9H113.656C120.185 107.9 126.373 105.628 131.332 101.485C131.409 101.494 131.475 101.53 131.553 101.53H144.284C145.456 101.53 146.406 100.579 146.406 99.4064V63.3105C146.406 62.1384 145.456 61.1877 144.284 61.1877ZM16.9741 97.2837V65.4343H25.4614V88.3276C22.4198 90.8453 19.8412 93.888 17.79 97.2837H16.9741ZM78.5072 115.332C78.5072 132.307 64.7047 146.119 47.7407 146.119C30.7766 146.119 16.9741 132.307 16.9741 115.332C16.9741 98.3559 30.7766 84.5439 47.7407 84.5439C64.7047 84.5439 78.5072 98.3554 78.5072 115.332ZM60.1995 71.8477C56.22 72.077 53.0452 75.2864 53.0452 79.2352C53.0452 79.7612 53.1052 80.2729 53.2118 80.7687C51.4242 80.4863 49.6063 80.2968 47.7407 80.2968C41.1391 80.2968 34.981 82.1685 29.7051 85.3598V63.6439L33.5997 60.4467C38.0227 56.8169 43.6079 54.8173 49.3278 54.8173H71.0808C72.8361 54.8173 74.2635 56.0696 74.2635 57.6095C74.2635 59.1478 72.8361 60.4005 70.9885 60.4027L52.9529 61.1893C51.7997 61.2392 50.8985 62.2021 50.9234 63.3572C50.9494 64.5112 51.891 65.4338 53.0452 65.4338H60.1751C59.6993 66.4031 59.4107 67.4748 59.4107 68.6187C59.4107 69.7807 59.7099 70.8673 60.1995 71.8477ZM142.162 97.2837H133.675V65.4343H142.162V97.2837Z" fill="#7D5A50"/>
<path d="M118.823 115.253C117.651 115.253 116.701 116.204 116.701 117.376V120.381C116.701 121.553 117.651 122.504 118.823 122.504C119.995 122.504 120.945 121.553 120.945 120.381V117.376C120.945 116.204 119.995 115.253 118.823 115.253Z" fill="#7D5A50"/>
<path d="M118.823 127.27C117.651 127.27 116.701 128.22 116.701 129.393V132.397C116.701 133.57 117.651 134.521 118.823 134.521C119.995 134.521 120.945 133.57 120.945 132.397V129.393C120.945 128.22 119.995 127.27 118.823 127.27Z" fill="#7D5A50"/>
<path d="M114.32 122.763H111.317C110.145 122.763 109.195 123.714 109.195 124.886C109.195 126.059 110.145 127.01 111.317 127.01H114.32C115.491 127.01 116.441 126.059 116.441 124.886C116.441 123.714 115.491 122.763 114.32 122.763Z" fill="#7D5A50"/>
<path d="M126.327 122.763H123.325C122.153 122.763 121.203 123.714 121.203 124.886C121.203 126.059 122.153 127.01 123.325 127.01H126.327C127.499 127.01 128.449 126.059 128.449 124.886C128.449 123.714 127.499 122.763 126.327 122.763Z" fill="#7D5A50"/>
<path d="M19.0957 115.331C19.0957 121.781 21.2154 127.891 25.2273 132.999C25.6012 133.477 26.163 133.77 26.7688 133.806C26.8112 133.809 26.8526 133.81 26.895 133.81C27.4557 133.81 27.9962 133.587 28.3952 133.188L65.585 95.9728C66.0141 95.5434 66.2385 94.9505 66.2024 94.3453C66.1664 93.7386 65.873 93.177 65.3956 92.8028C60.291 88.7887 54.1855 86.667 47.7404 86.667C31.946 86.667 19.0957 99.5256 19.0957 115.331ZM27.1677 128.412C24.656 124.494 23.3394 120.018 23.3394 115.331C23.3394 110.158 24.9668 105.364 27.7204 101.411C32.694 105.599 38.9141 107.9 45.4796 107.9H47.6656L27.1677 128.412ZM51.9093 103.653H45.4796C39.914 103.653 34.6429 101.699 30.4295 98.1444C34.8529 93.6829 40.9781 90.9136 47.7404 90.9136C52.4233 90.9136 56.8972 92.2311 60.8125 94.7445L51.9093 103.653Z" fill="#7D5A50"/>
<path d="M29.2791 136.317C29.3152 136.924 29.6086 137.485 30.086 137.859C35.1911 141.874 41.2967 143.995 47.7417 143.995C63.5361 143.995 76.3864 131.136 76.3864 115.331C76.3864 108.881 74.2667 102.771 70.2549 97.6634C69.8809 97.1856 69.3191 96.8921 68.7133 96.856C68.1102 96.8114 67.5166 97.0444 67.087 97.4739L29.8971 134.689C29.468 135.118 29.2431 135.711 29.2791 136.317ZM68.3144 102.25C68.6088 102.709 68.8842 103.178 69.1457 103.653H66.913L68.3144 102.25ZM62.6693 107.899H70.9699C71.7359 110.277 72.1428 112.771 72.1428 115.331C72.1428 128.795 61.1968 139.749 47.7417 139.749C43.0588 139.749 38.585 138.431 34.6697 135.918L62.6693 107.899Z" fill="#7D5A50"/>
</svg>
