<svg width="35" height="52" viewBox="0 0 35 52" fill="none" xmlns="http://www.w3.org/2000/svg">
<path d="M33.0362 0.285738C33.5257 0.521554 33.9388 0.890625 34.2281 1.35058C34.5173 1.81054 34.671 2.34275 34.6715 2.8861V49.1148C34.6708 49.6585 34.5166 50.1909 34.2268 50.6509C33.937 51.1109 33.5232 51.4798 33.0332 51.7152C32.5431 51.9506 31.9965 52.0429 31.4563 51.9816C30.9161 51.9202 30.4042 51.7077 29.9793 51.3685L16.3245 40.4469H2.88929C2.12301 40.4469 1.3881 40.1425 0.846255 39.6007C0.304408 39.0588 0 38.3239 0 37.5576V14.4433C0 13.677 0.304408 12.9421 0.846255 12.4002C1.3881 11.8584 2.12301 11.554 2.88929 11.554H16.3245L29.9793 0.632453C30.4045 0.292602 30.917 0.0797491 31.4578 0.0184088C31.9986 -0.0429315 32.5457 0.0497358 33.0362 0.285738V0.285738ZM28.8929 8.89584L19.1387 16.6969C18.6273 17.1073 17.9915 17.3314 17.3358 17.3326H5.77859V34.6683H17.3358C17.9915 34.6695 18.6273 34.8937 19.1387 35.304L28.8929 43.1051V8.89584Z" fill="white"/>
</svg>
