<svg width="52" height="52" viewBox="0 0 52 52" fill="none" xmlns="http://www.w3.org/2000/svg">
<path d="M34.5706 2.88523C34.5699 2.34155 34.4161 1.80911 34.1272 1.34911C33.8382 0.889115 33.4257 0.520225 32.937 0.284837C32.4484 0.0494485 31.9034 -0.0428871 31.3648 0.0184439C30.8261 0.079775 30.3157 0.292282 29.8921 0.631544L16.277 11.5533H2.88089C2.11683 11.5533 1.38406 11.8577 0.843792 12.3995C0.303522 12.9414 0 13.6763 0 14.4426V37.5574C0 38.3237 0.303522 39.0586 0.843792 39.6005C1.38406 40.1423 2.11683 40.4467 2.88089 40.4467H16.277L29.8921 51.3685C30.3157 51.7077 30.8261 51.9202 31.3648 51.9816C31.9034 52.0429 32.4484 51.9506 32.937 51.7152C33.4257 51.4798 33.8382 51.1109 34.1272 50.6509C34.4161 50.1909 34.5699 49.6585 34.5706 49.1148V2.88523ZM19.083 16.6963L28.8089 8.89507V43.1049L19.083 35.3037C18.573 34.8934 17.9391 34.6692 17.2853 34.668H5.76177V17.332H17.2853C17.9391 17.3308 18.573 17.1066 19.083 16.6963ZM52 26C52.0044 29.4156 51.3358 32.7984 50.0326 35.9539C48.7293 39.1095 46.8172 41.9757 44.406 44.3878L40.3324 40.3023C42.2078 38.4261 43.6949 36.1967 44.7085 33.7423C45.722 31.2878 46.2419 28.6566 46.2382 26C46.2415 23.3434 45.7215 20.7124 44.708 18.2579C43.6945 15.8035 42.2075 13.5741 40.3324 11.6977L44.406 7.6122C46.8172 10.0243 48.7293 12.8905 50.0326 16.0461C51.3358 19.2016 52.0044 22.5844 52 26Z" fill="white"/>
</svg>
