<svg width="160" height="160" viewBox="0 0 160 160" fill="none" xmlns="http://www.w3.org/2000/svg">
<g clip-path="url(#clip0_87_69)">
<path d="M63.8555 122.936C63.8798 121.648 62.856 120.584 61.5691 120.56C60.2905 120.537 59.2189 121.56 59.1946 122.848C59.0731 129.28 59.1415 135.979 59.3951 142.794H26.8593C20.8965 118.311 29.792 94.2986 29.8843 94.0545C29.892 94.0343 29.8995 94.0134 29.9066 93.9929C35.9938 76.4824 37.2913 66.4018 37.3445 65.9745C37.8219 62.0425 36.4848 57.9938 33.4776 54.2655C31.212 51.4609 29.9952 47.9611 30.0515 44.4123C30.3104 28.6188 33.8618 15.3915 35.9556 8.91296C36.8121 6.266 39.3575 4.52344 42.1437 4.67397L51.3288 5.16908C52.6152 5.23719 53.7126 4.25162 53.7819 2.96531C53.8512 1.67899 52.8651 0.580213 51.5796 0.510548L42.3948 0.0157395C37.4999 -0.247681 33.027 2.81851 31.5196 7.47736C28.8642 15.6938 25.6454 28.7582 25.3899 44.3373C25.3166 48.9781 26.9013 53.5455 29.851 57.197C32.0788 59.9591 33.0431 62.7233 32.7177 65.4041C32.7053 65.5027 31.4099 75.4626 25.5139 92.4314C24.9567 93.9124 15.6271 119.398 22.8023 145.74C22.9925 146.439 23.8425 149.21 24.0722 149.882C24.5216 151.199 25.0076 152.495 25.5292 153.758C26.9056 157.092 30.1099 159.246 33.6924 159.246H55.5957C58.0105 159.246 60.3464 158.239 62.0042 156.482C63.4873 154.91 64.3388 152.83 64.4041 150.682C64.4041 150.422 64.4112 150.176 64.3963 149.916C63.8826 140.99 63.6871 131.883 63.8555 122.936ZM58.6137 153.279C57.8215 154.119 56.7493 154.582 55.595 154.582H33.6918C32.0035 154.582 30.4903 153.559 29.837 151.977C29.2248 150.494 28.6796 148.983 28.1858 147.46H59.5958C59.598 147.502 59.732 150.018 59.7413 150.184C59.8078 151.339 59.4075 152.438 58.6137 153.279Z" fill="#7D5A50"/>
<path d="M105.2 3.379L62.3124 1.08938C61.0251 1.02003 59.929 2.00684 59.8594 3.29316C59.7901 4.57947 60.7762 5.67856 62.0616 5.74792L95.8641 7.56947V43.8606C80.0719 48.126 71.4379 63.4138 70.5907 64.9781C64.5582 74.1916 60.8629 89.9636 59.6055 111.861C59.5318 113.147 60.5136 114.25 61.799 114.324C61.8444 114.326 61.8898 114.327 61.9348 114.327C63.1609 114.327 64.1884 113.369 64.2599 112.129C64.818 102.404 65.853 93.9762 67.3525 86.8781H76.7294C78.7132 86.8781 80.5841 86.0082 81.8627 84.4915C83.1447 82.9707 83.6871 80.9718 83.3511 79.0078C82.2916 72.8136 81.8851 63.7111 81.7297 57.9183C85.7631 53.7701 91.454 49.4895 98.628 47.9954L105.645 46.878C109.006 46.4805 111.532 43.6416 111.532 40.2483V10.0466C111.532 6.48842 108.751 3.55969 105.2 3.379ZM78.2992 81.4834C78.0695 81.7556 77.5604 82.2127 76.7297 82.2127H68.4543C70.0719 76.085 72.103 71.154 74.5408 67.4574C74.5824 67.3943 74.621 67.329 74.6564 67.2621C74.6835 67.2111 75.5664 65.5696 77.2484 63.2527C77.4865 68.6212 77.9297 74.9635 78.7561 79.7944C78.8981 80.6238 78.5307 81.2088 78.2992 81.4834ZM106.87 40.2477C106.87 41.2761 106.1 42.1354 105.078 42.2468C105.04 42.2508 100.526 42.9686 100.526 42.9686L100.526 7.81174L104.963 8.03784C106.033 8.09227 106.87 8.97459 106.87 10.0463V40.2477Z" fill="#7D5A50"/>
<path d="M41.0433 14.714C39.457 19.7414 36.7867 29.5748 36.7286 38.9478C36.719 40.5137 37.3763 42.0147 38.5328 43.0659C39.5466 43.9877 40.868 44.4934 42.2262 44.4934C42.4108 44.4934 42.5963 44.484 42.7819 44.4651L85.4593 40.1042C88.2732 39.8165 90.395 37.4656 90.395 34.6351V16.3723C90.395 13.341 87.9304 10.875 84.9014 10.875H46.2814C43.8731 10.875 41.7681 12.4179 41.0433 14.714ZM85.7328 16.3723V34.6354C85.7328 35.064 85.4114 35.4198 84.9857 35.4633L42.3082 39.8243C41.9866 39.8575 41.7699 39.7064 41.668 39.6134C41.5636 39.5182 41.3886 39.3092 41.3905 38.9768C41.447 29.8895 44.2755 19.9641 45.4889 16.1189C45.5983 15.7727 45.9165 15.5401 46.2814 15.5401H84.9011C85.3599 15.5401 85.7328 15.9136 85.7328 16.3723Z" fill="#7D5A50"/>
<path d="M55.5536 33.4631C59.6486 33.4631 62.9803 30.1292 62.9803 26.0314C62.9803 21.9336 59.6486 18.5996 55.5536 18.5996C51.4586 18.5996 48.127 21.9336 48.127 26.0314C48.127 30.1292 51.4586 33.4631 55.5536 33.4631ZM55.5536 23.265C57.078 23.265 58.3184 24.5062 58.3184 26.0317C58.3184 27.5572 57.078 28.7984 55.5536 28.7984C54.0292 28.7984 52.7888 27.5572 52.7888 26.0317C52.7888 24.5062 54.0292 23.265 55.5536 23.265Z" fill="#7D5A50"/>
<path d="M74.3876 33.4631C78.4825 33.4631 81.8139 30.1292 81.8139 26.0314C81.8139 21.9336 78.4822 18.5996 74.3876 18.5996C70.2929 18.5996 66.9609 21.9336 66.9609 26.0314C66.9609 30.1292 70.2926 33.4631 74.3876 33.4631ZM74.3876 23.265C75.912 23.265 77.1524 24.5062 77.1524 26.0317C77.1524 27.5572 75.912 28.7984 74.3876 28.7984C72.8632 28.7984 71.6228 27.5572 71.6228 26.0317C71.6228 24.5062 72.8632 23.265 74.3876 23.265Z" fill="#7D5A50"/>
<path d="M130.936 8.36286C129.939 7.54709 128.471 7.69513 127.656 8.6919C126.84 9.68929 126.988 11.1588 127.984 11.9742C132.045 15.297 134.373 20.209 134.373 25.4507C134.373 30.5848 132.123 35.4318 128.199 38.7486C127.216 39.5799 127.092 41.0516 127.923 42.0356C128.384 42.5817 129.042 42.8629 129.704 42.8629C130.236 42.8629 130.77 42.6822 131.207 42.3121C136.182 38.107 139.035 31.9609 139.035 25.4504C139.035 18.8033 136.083 12.5751 130.936 8.36286Z" fill="#7D5A50"/>
<path d="M126.08 18.0326C125.083 17.2175 123.615 17.3646 122.8 18.3619C121.985 19.3593 122.132 20.8288 123.129 21.6443C124.256 22.5667 124.903 23.9305 124.903 25.3854C124.903 26.8104 124.278 28.1558 123.189 29.077C122.205 29.9083 122.081 31.38 122.912 32.364C123.373 32.9101 124.031 33.1913 124.694 33.1913C125.225 33.1913 125.759 33.0106 126.197 32.6405C128.337 30.8314 129.565 28.1869 129.565 25.385C129.565 22.5247 128.294 19.8445 126.08 18.0326Z" fill="#7D5A50"/>
</g>
<defs>
<clipPath id="clip0_87_69">
<rect width="159.137" height="159.247" fill="white"/>
</clipPath>
</defs>
</svg>
