<svg width="483" height="435" viewBox="0 0 483 435" fill="none" xmlns="http://www.w3.org/2000/svg">
<path d="M370.297 136.147C362.44 122.576 346.726 117.576 330.655 129.005C316.012 139.362 306.727 166.861 293.156 194.003C281.013 218.288 269.942 242.931 255.3 251.502C243.871 258.288 231.014 259.716 227.443 249.359C223.157 237.217 238.514 223.288 261.014 210.789L260.299 208.646C237.8 221.146 205.658 239.359 213.872 258.288C219.229 270.43 238.514 270.073 253.871 259.002C267.799 248.645 277.442 231.502 286.37 214.003C325.298 232.574 321.727 342.214 217.086 342.214C170.659 342.214 141.731 312.929 138.873 281.859C134.231 230.431 165.659 191.86 223.157 212.931C223.872 211.503 224.229 210.432 224.229 210.432C181.373 195.075 157.802 167.575 157.802 136.505C157.802 115.076 166.016 97.5768 180.658 91.5056C204.586 81.5058 239.228 96.1483 262.799 135.79H265.299L272.085 99.0054C231.371 83.6486 202.801 81.1486 176.016 90.077C149.23 98.6483 132.445 112.934 130.659 138.29C127.445 182.575 176.373 195.432 205.301 204.717C151.73 191.146 102.089 224.36 111.017 280.073C116.017 311.144 155.659 346.143 215.3 346.143C321.012 346.143 326.012 242.931 295.299 217.217C307.441 220.788 322.798 221.503 339.583 210.789C364.94 194.718 383.868 159.718 370.297 136.147ZM338.512 209.36C317.441 222.931 297.441 216.146 287.442 211.503C290.299 205.789 293.156 200.075 295.656 194.718C306.37 172.932 316.727 146.504 326.012 140.433C335.655 133.647 347.083 134.719 356.369 148.29C367.797 165.433 361.369 194.36 338.512 209.36Z" fill="#3D3D3D" fill-opacity="0.25"/>
<path d="M136.263 200.957C159.462 200.957 178.776 186.083 178.776 166.547C178.554 156.668 173.226 148.454 165.567 145.235C172.338 141.461 175.446 135.245 175.446 129.14C175.446 119.372 167.565 110.048 153.801 110.048H126.495C129.714 116.93 129.381 119.594 129.381 127.364V170.654C129.381 178.424 129.714 181.088 126.495 187.97H140.481V146.234H146.697C159.906 146.345 168.453 154.004 168.453 167.657C168.453 186.194 154.356 199.847 136.152 199.847C123.276 199.847 113.286 189.968 113.286 177.647C113.286 170.432 117.726 164.327 126.051 166.214C124.053 162.44 120.057 160.775 115.95 160.775C107.847 160.775 102.63 168.101 102.63 176.426C102.63 190.523 119.946 200.957 136.263 200.957ZM140.481 144.347V111.602H146.919C160.017 111.602 166.455 119.705 166.455 127.697C166.455 135.911 159.795 144.125 146.808 144.347H140.481ZM201.596 189.635C210.698 189.746 219.134 182.642 235.229 187.859C233.786 185.417 232.343 179.756 232.343 173.984V147.011C232.343 133.469 221.798 126.809 210.365 126.809C200.93 126.809 192.272 131.36 192.272 140.351C192.272 145.79 197.267 149.009 201.929 149.009C204.371 149.009 206.702 148.121 208.145 146.234C204.038 144.569 202.151 141.017 202.151 137.465C202.151 131.471 207.146 128.363 212.252 128.363C216.803 128.363 221.465 131.138 221.576 136.799C221.909 146.678 212.807 151.229 203.039 154.781C191.384 158.888 183.17 163.106 183.17 173.984C183.17 183.974 191.717 189.524 201.596 189.635ZM221.243 184.085C207.035 187.415 194.159 184.973 194.159 172.985C194.048 158 213.917 155.891 221.243 146.123V184.085ZM253.026 221.936C259.242 221.936 266.124 216.719 271.008 202.067L290.211 144.902C292.764 137.132 294.096 134.468 299.202 127.697H284.55C287.214 132.359 290.1 140.129 287.658 147.677L275.115 185.75H273.45L251.472 134.135C250.917 132.359 250.584 130.139 252.471 127.697H232.491C235.599 129.695 238.818 134.135 241.149 139.463L261.795 187.193C267.345 188.414 270.009 192.743 270.009 197.405C270.009 205.286 263.349 211.169 255.801 211.169C251.694 211.28 247.365 209.393 243.924 205.064C242.37 206.951 241.704 209.171 241.704 211.391C241.704 216.83 245.922 221.936 253.026 221.936ZM314.168 189.746C327.599 189.746 336.368 169.544 339.143 157.334V175.871C339.143 182.753 341.807 187.97 347.69 187.97H353.018C351.575 185.528 350.243 179.867 350.243 173.984V127.697C345.803 130.139 340.253 131.915 334.925 132.803C339.698 138.575 339.143 144.236 339.143 146.789V152.117C334.925 171.875 326.489 182.864 320.273 182.864C316.388 182.864 313.391 178.202 313.391 168.323V127.697C308.951 130.139 303.401 131.915 298.073 132.803C302.846 138.575 302.291 144.236 302.291 146.789V161.219C302.291 175.538 301.514 189.746 314.168 189.746Z" fill="#3D3D3D"/>
<path d="M34.521 296.882C52.947 296.882 75.924 284.117 75.924 256.256V214.52C75.924 206.75 75.924 204.086 78.81 197.204H57.054C36.075 197.204 24.864 211.745 24.864 225.065C24.864 235.166 31.08 239.495 37.407 239.495C42.846 239.495 48.063 236.387 48.285 231.725C38.961 233.057 33.966 226.508 33.966 218.849C33.966 209.081 41.514 198.869 56.61 198.869C61.05 198.869 64.824 201.2 64.824 204.974V257.81C64.824 281.675 47.397 294.773 32.634 294.773C18.981 294.773 12.432 284.561 12.432 275.792C12.432 268.355 17.205 261.806 26.085 263.471C25.641 257.588 19.758 253.925 14.763 253.925C6.882 253.925 2.22 261.14 2.22 269.465C2.22 282.452 12.765 296.882 34.521 296.882ZM101.728 276.791C110.83 276.902 119.266 269.798 135.361 275.015C133.918 272.573 132.475 266.912 132.475 261.14V234.167C132.475 220.625 121.93 213.965 110.497 213.965C101.062 213.965 92.404 218.516 92.404 227.507C92.404 232.946 97.399 236.165 102.061 236.165C104.503 236.165 106.834 235.277 108.277 233.39C104.17 231.725 102.283 228.173 102.283 224.621C102.283 218.627 107.278 215.519 112.384 215.519C116.935 215.519 121.597 218.294 121.708 223.955C122.041 233.834 112.939 238.385 103.171 241.937C91.516 246.044 83.302 250.262 83.302 261.14C83.302 271.13 91.849 276.68 101.728 276.791ZM121.375 271.241C107.167 274.571 94.291 272.129 94.291 260.141C94.18 245.156 114.049 243.047 121.375 233.279V271.241ZM153.158 309.092C159.374 309.092 166.256 303.875 171.14 289.223L190.343 232.058C192.896 224.288 194.228 221.624 199.334 214.853H184.682C187.346 219.515 190.232 227.285 187.79 234.833L175.247 272.906H173.582L151.604 221.291C151.049 219.515 150.716 217.295 152.603 214.853H132.623C135.731 216.851 138.95 221.291 141.281 226.619L161.927 274.349C167.477 275.57 170.141 279.899 170.141 284.561C170.141 292.442 163.481 298.325 155.933 298.325C151.826 298.436 147.497 296.549 144.056 292.22C142.502 294.107 141.836 296.327 141.836 298.547C141.836 303.986 146.054 309.092 153.158 309.092ZM208.717 276.791C217.819 276.902 226.255 269.798 242.35 275.015C240.907 272.573 239.464 266.912 239.464 261.14V234.167C239.464 220.625 228.919 213.965 217.486 213.965C208.051 213.965 199.393 218.516 199.393 227.507C199.393 232.946 204.388 236.165 209.05 236.165C211.492 236.165 213.823 235.277 215.266 233.39C211.159 231.725 209.272 228.173 209.272 224.621C209.272 218.627 214.267 215.519 219.373 215.519C223.924 215.519 228.586 218.294 228.697 223.955C229.03 233.834 219.928 238.385 210.16 241.937C198.505 246.044 190.291 250.262 190.291 261.14C190.291 271.13 198.838 276.68 208.717 276.791ZM228.364 271.241C214.156 274.571 201.28 272.129 201.28 260.141C201.169 245.156 221.038 243.047 228.364 233.279V271.241ZM302.734 275.126C299.848 268.244 299.848 265.58 299.848 257.81V226.952C299.848 218.738 294.964 213.854 289.414 213.854C280.312 213.854 267.436 227.063 260.665 246.821V214.853C256.114 217.295 250.564 219.071 245.347 219.959C250.12 225.731 249.565 231.392 249.565 233.945V257.81C249.565 265.58 249.898 268.244 246.679 275.126H263.551C260.665 268.244 260.665 265.58 260.665 257.81V252.593C264.661 234.278 278.092 219.515 284.086 219.515C286.861 219.515 288.748 222.401 288.748 229.283V257.81C288.748 265.58 289.081 268.244 285.862 275.126H302.734ZM333.721 277.013V276.68C328.615 275.126 321.178 272.573 321.178 259.919V216.74H332.056V214.853H321.178V194.984H320.512C320.068 198.425 316.405 211.301 305.194 214.964C308.191 216.407 309.967 218.516 309.967 221.846V259.808C309.967 270.464 316.405 277.013 333.721 277.013ZM392.785 275.126C389.899 268.244 389.899 265.58 389.899 257.81V242.825L390.01 231.059C390.121 222.401 387.013 213.854 379.132 213.854C366.7 213.854 356.377 232.835 352.381 247.931V197.204C347.83 199.646 342.28 201.422 337.063 202.31C341.836 208.082 341.281 213.743 341.281 216.296V257.81C341.281 265.58 341.614 268.244 338.395 275.126H355.267C352.381 268.244 352.381 265.58 352.381 257.81V252.593C357.376 231.614 367.033 220.625 372.916 220.625C376.357 220.625 378.799 224.177 378.799 231.281V257.81C378.799 265.58 379.132 268.244 375.913 275.126H392.785ZM357.264 305.207C356.154 296.66 362.259 296.66 381.018 298.325C384.903 298.547 389.121 298.991 393.339 298.991C407.103 298.991 421.2 294.995 430.635 275.126L451.17 232.058C454.5 224.954 467.376 198.425 482.805 197.648C480.696 195.095 477.144 193.097 472.149 193.097C460.827 193.097 452.391 205.862 448.617 221.402C446.064 231.947 440.403 247.487 434.853 259.031L416.538 221.291C415.872 219.515 415.428 217.295 417.204 214.853H396.225C399.999 217.184 402.996 222.068 405.438 226.619L428.526 273.35C424.086 286.115 415.872 291.665 406.326 291.665C394.338 291.665 380.241 286.892 369.252 286.892C360.372 286.892 355.044 290.444 355.044 297.437C355.044 299.99 355.71 302.654 357.264 305.207Z" fill="#3D3D3D"/>
<path d="M47.0681 31H53.2121C52.3801 29.016 52.3801 28.248 52.3801 26.008V24.44C58.2681 24.888 65.2121 22.68 65.2121 15.864C65.2121 12.088 62.7481 8.6 57.3721 8.536H47.0681C47.9961 10.52 47.9001 11.288 47.9001 13.528V26.008C47.9001 28.248 47.9961 29.016 47.0681 31ZM52.3801 23.896V9.048H53.8841C58.3641 8.984 60.5721 12.312 60.5721 15.832C60.5721 19.8 57.8201 24.056 52.3801 23.896ZM92.7136 30.552H91.0176V20.024H93.9616C96.2016 20.024 97.5456 20.92 98.9536 22.52V16.984C97.5456 18.584 96.2016 19.48 93.9616 19.48H91.0176V9.048L91.6576 9.08C94.1536 9.08 97.3536 9.496 100.266 12.632L102.346 8.536H85.7056C86.6336 10.52 86.5376 11.288 86.5376 13.528V26.008C86.5376 28.248 86.6336 29.016 85.7056 31H102.186L100.906 26.744C99.4336 28.568 96.8736 30.552 92.7136 30.552ZM122.687 31H128.831C127.999 29.016 127.999 28.248 127.999 26.008V19.576H131.423C138.111 19.576 134.719 30.904 139.679 30.936L143.135 31C142.335 30.392 141.887 29.176 141.503 27.928C140.735 25.432 140.223 19.288 134.879 19.288V19.192C138.623 18.936 140.479 16.44 140.479 13.976C140.479 11.256 138.303 8.536 134.047 8.536H122.687C123.615 10.52 123.519 11.288 123.519 13.528V26.008C123.519 28.248 123.615 29.016 122.687 31ZM127.999 19.032V8.984H130.751C134.559 8.984 136.351 11.416 136.351 13.88C136.351 16.44 134.431 19 130.943 19L127.999 19.032ZM180.171 8.536C181.867 10.872 182.507 14.328 182.507 16.728V24.472L167.499 8.536H162.891C164.171 9.528 164.971 10.744 165.003 12.216V22.808C165.003 25.208 164.363 28.664 162.699 31H167.883C166.187 28.664 165.547 25.208 165.547 22.808V12.792L182.635 31H183.051V16.728C183.051 14.328 183.691 10.872 185.355 8.536H180.171ZM205.587 31H211.731C210.899 29.016 210.899 28.248 210.899 26.008V13.528C210.899 11.288 210.899 10.52 211.731 8.536H205.587C206.515 10.52 206.419 11.288 206.419 13.528V26.008C206.419 28.248 206.515 29.016 205.587 31ZM233.006 31H239.15C238.318 29.016 238.318 28.248 238.318 26.008V22.712L241.422 18.68L244.814 26.008C245.87 28.248 246.35 29.016 246.35 31H252.494C250.734 29.016 250.35 28.28 249.294 26.008L244.206 15.256C246.126 13.048 248.782 10.424 251.534 8.536H246.35C246.254 10.872 244.238 14.328 242.382 16.728L238.318 22.04V13.528C238.318 11.288 238.318 10.52 239.15 8.536H233.006C233.934 10.52 233.838 11.288 233.838 13.528V26.008C233.838 28.184 233.902 29.24 233.006 31ZM269.831 31H275.015C274.023 28.664 274.407 25.208 275.111 22.808L275.463 21.592H283.175L284.647 26.008C285.383 28.248 285.767 29.016 285.479 31H291.623C290.151 29.016 289.863 28.248 289.127 26.008L284.999 13.528C284.263 11.288 284.007 10.52 284.167 8.536L277.959 8.568L278.567 9.208L274.567 22.808C273.863 25.208 272.199 28.664 269.831 31ZM275.623 21.048L278.951 9.752C279.527 10.68 279.943 11.768 280.519 13.528L283.015 21.048H275.623ZM311.749 31H317.893C317.061 29.016 317.061 28.248 317.061 26.008V19.672H326.341V26.008C326.341 28.248 326.437 29.016 325.509 31H331.653C330.821 29.016 330.821 28.248 330.821 26.008V13.528C330.821 11.288 330.821 10.52 331.653 8.536H325.509C326.437 10.52 326.341 11.288 326.341 13.528V19.128H317.061V13.528C317.061 11.288 317.061 10.52 317.893 8.536H311.749C312.677 10.52 312.581 11.288 312.581 13.528V26.008C312.581 28.248 312.677 29.016 311.749 31ZM351.543 31H356.727C355.735 28.664 356.119 25.208 356.823 22.808L357.175 21.592H364.887L366.359 26.008C367.095 28.248 367.479 29.016 367.191 31H373.335C371.863 29.016 371.575 28.248 370.839 26.008L366.711 13.528C365.975 11.288 365.719 10.52 365.879 8.536L359.671 8.568L360.279 9.208L356.279 22.808C355.575 25.208 353.911 28.664 351.543 31ZM357.335 21.048L360.663 9.752C361.239 10.68 361.655 11.768 362.231 13.528L364.727 21.048H357.335ZM409.746 8.536C411.442 10.872 412.082 14.328 412.082 16.728V24.472L397.074 8.536H392.466C393.746 9.528 394.546 10.744 394.578 12.216V22.808C394.578 25.208 393.938 28.664 392.274 31H397.458C395.762 28.664 395.122 25.208 395.122 22.808V12.792L412.21 31H412.626V16.728C412.626 14.328 413.266 10.872 414.93 8.536H409.746Z" fill="#3D3D3D"/>
</svg>
