<svg width="200" height="200" viewBox="0 0 200 200" fill="none" xmlns="http://www.w3.org/2000/svg">
<path d="M170.711 129.289C159.819 118.398 146.855 110.335 132.711 105.454C147.86 95.0199 157.812 77.5578 157.812 57.8125C157.812 25.9348 131.878 0 100 0C68.1223 0 42.1875 25.9348 42.1875 57.8125C42.1875 77.5578 52.1402 95.0199 67.2898 105.454C53.1453 110.335 40.1813 118.398 29.2895 129.289C10.402 148.177 0 173.289 0 200H15.625C15.625 153.475 53.4754 115.625 100 115.625C146.525 115.625 184.375 153.475 184.375 200H200C200 173.289 189.598 148.177 170.711 129.289ZM100 100C76.7379 100 57.8125 81.075 57.8125 57.8125C57.8125 34.55 76.7379 15.625 100 15.625C123.262 15.625 142.188 34.55 142.188 57.8125C142.188 81.075 123.262 100 100 100Z" fill="#3D3D3D"/>
</svg>
