<svg width="160" height="160" viewBox="0 0 160 160" fill="none" xmlns="http://www.w3.org/2000/svg">
<g clip-path="url(#clip0_87_87)">
<path d="M113.113 102.593C111.119 100.967 108.514 100.228 105.963 100.564L82.6824 103.635C82.0294 103.721 81.6965 103.295 81.5831 103.108C81.4696 102.921 81.2458 102.427 81.6216 101.889L84.8324 97.2867C85.5694 96.2304 85.3111 94.776 84.2555 94.0385C83.2 93.3007 81.7466 93.5595 81.0099 94.6158L77.7991 99.2182C76.4688 101.125 76.3923 103.544 77.5993 105.532C78.8068 107.519 80.9869 108.564 83.292 108.261L106.572 105.189C107.874 105.018 109.151 105.38 110.168 106.21C111.185 107.039 111.798 108.218 111.893 109.528C112.043 111.606 110.841 113.51 108.902 114.266L64.9323 131.419C59.0858 133.7 52.6962 134.571 46.4527 133.936L42.9236 133.578C42.4182 133.527 41.9063 133.643 41.4712 133.91L15.3957 149.887C14.2975 150.559 13.9522 151.995 14.6248 153.094C15.0646 153.813 15.8305 154.209 16.615 154.209C17.0303 154.209 17.4505 154.098 17.83 153.865L43.2351 138.299L45.9818 138.578C52.9563 139.286 60.0944 138.314 66.6251 135.766L87.5052 127.621L95.1772 152.562C95.4855 153.565 96.408 154.209 97.4042 154.209C97.6314 154.209 97.8627 154.176 98.0908 154.105C99.3214 153.727 100.012 152.421 99.6331 151.19L91.8607 125.922L110.595 118.613C114.451 117.109 116.842 113.322 116.543 109.191C116.358 106.624 115.107 104.219 113.113 102.593Z" fill="#7D5A50"/>
<path d="M21.5741 79.1496L25.1032 75.66C26.0189 74.7543 26.0279 73.2775 25.1228 72.3612C24.2173 71.4446 22.7422 71.4359 21.8262 72.3416L18.3027 75.8258C15.0341 79.0367 12.5264 83.0272 11.0503 87.3659L9.47876 91.9848L0.917789 98.5184C-0.106059 99.2997 -0.303121 100.763 0.477665 101.788C0.936749 102.39 1.63081 102.706 2.33327 102.706C2.82624 102.706 3.32324 102.55 3.74503 102.228L12.8705 95.2634C13.2388 94.9826 13.5145 94.5987 13.6637 94.1605L15.4636 88.8691C16.7063 85.2169 18.8174 81.8578 21.5741 79.1496Z" fill="#7D5A50"/>
<path d="M143.726 131.33C143.333 130.103 142.02 129.426 140.794 129.82C139.568 130.213 138.893 131.527 139.286 132.754L145.638 152.589C145.956 153.579 146.872 154.21 147.858 154.21C148.094 154.21 148.334 154.174 148.57 154.098C149.796 153.705 150.471 152.392 150.079 151.165L143.726 131.33Z" fill="#7D5A50"/>
<path d="M131.727 84.5884C135.288 80.1163 137.959 75.0822 139.667 69.626L145.983 49.4531C146.367 48.2236 145.684 46.9147 144.455 46.5297C143.228 46.1458 141.918 46.8289 141.534 48.0584L135.218 68.2313C133.683 73.1363 131.281 77.6613 128.081 81.6814L126.594 83.5486C125.648 84.7364 125.144 86.2344 125.173 87.7662V87.7666C125.186 88.4197 125.952 91.1208 125.952 91.1208C126.268 92.1089 127.183 92.7419 128.171 92.7419C128.391 92.7419 128.615 92.7105 128.836 92.6445L128.947 92.6131C129.548 92.4414 130.055 92.0358 130.354 91.4866C130.653 90.9373 130.719 90.2909 130.538 89.6925L129.851 87.4275C129.89 87.0705 130.021 86.7317 130.241 86.4559L131.727 84.5884Z" fill="#7D5A50"/>
<path d="M4.57227 51.9719C4.57227 56.0966 7.92573 59.4524 12.0475 59.4524C16.1697 59.4524 19.5231 56.0966 19.5231 51.9719C19.5231 47.847 16.1697 44.4912 12.0475 44.4912C7.92573 44.4915 4.57227 47.8473 4.57227 51.9719ZM14.8605 51.9719C14.8605 53.524 13.5982 54.7868 12.0472 54.7868C10.4962 54.7868 9.23429 53.524 9.23429 51.9719C9.23429 50.4196 10.4962 49.1568 12.0472 49.1568C13.5982 49.1568 14.8605 50.4199 14.8605 51.9719Z" fill="#7D5A50"/>
<path d="M150.482 65.873C145.71 65.873 141.826 69.7588 141.826 74.5351C141.826 79.3114 145.709 83.1971 150.482 83.1971C155.255 83.1971 159.138 79.3114 159.138 74.5351C159.138 69.7588 155.255 65.873 150.482 65.873ZM150.482 78.5316C148.28 78.5316 146.489 76.7388 146.489 74.5351C146.489 72.3314 148.28 70.5386 150.482 70.5386C152.684 70.5386 154.476 72.3314 154.476 74.5351C154.476 76.7388 152.684 78.5316 150.482 78.5316Z" fill="#7D5A50"/>
<path d="M14.7504 29.4176C20.4089 29.4176 25.0128 24.8108 25.0128 19.1481C25.0128 13.4854 20.4092 8.87891 14.7504 8.87891C9.09156 8.87891 4.48828 13.4857 4.48828 19.1481C4.48828 24.8105 9.09187 29.4176 14.7504 29.4176ZM14.7504 13.5444C17.8384 13.5444 20.3505 16.0582 20.3505 19.1484C20.3505 22.2385 17.8384 24.7523 14.7504 24.7523C11.6624 24.7523 9.1503 22.2385 9.1503 19.1484C9.1503 16.0582 11.6627 13.5444 14.7504 13.5444Z" fill="#7D5A50"/>
<path d="M116.619 51.7261L116.955 51.2456H123.979C126.017 51.2456 127.854 49.9572 128.55 48.0397L132.716 36.559C134.488 31.6748 138.552 27.9975 143.587 26.7225C144.618 26.4616 145.671 26.7673 146.402 27.5409C147.134 28.3147 147.38 29.3831 147.062 30.3993L144.511 38.5469C144.126 39.7764 144.811 41.0852 146.039 41.4703C147.266 41.8554 148.576 41.1711 148.96 39.9416L151.511 31.794C152.341 29.1424 151.698 26.3536 149.789 24.3347C147.881 22.3158 145.134 21.5176 142.443 22.1994C135.909 23.8542 130.634 28.6273 128.334 34.9665L124.168 46.4472C124.139 46.5265 124.063 46.58 123.979 46.58H120.21L121.157 45.2214C122.511 43.2821 122.982 40.8476 122.449 38.5431C121.917 36.2384 120.427 34.2577 118.361 33.1087C117.466 32.6108 116.51 32.2966 115.54 32.1523C116.599 29.2142 115.806 25.7813 113.312 23.647C110.183 20.9699 105.519 21.2187 102.694 24.2128L101.295 25.6942C100.818 24.3742 100.014 23.1879 98.9279 22.2309C98.8048 22.1223 98.679 22.0194 98.5515 21.9195C98.7203 21.057 98.7778 20.173 98.7181 19.2754C98.375 14.1066 94.2137 10.0351 89.0382 9.80403C86.9594 9.71165 84.9266 10.2516 83.1888 11.3399C81.2717 8.91695 78.3832 7.50423 75.2349 7.50423C71.6663 7.50423 68.4813 9.32254 66.6565 12.2177L61.7921 7.4358C60.1056 5.77797 57.7838 4.90832 55.4265 5.05015C53.0667 5.19167 50.8671 6.33286 49.391 8.18042C48.7513 8.98102 48.2829 9.87183 47.9792 10.8043C45.2604 9.27122 41.7457 9.48335 39.2274 11.5894C36.0694 14.2307 35.5386 18.8742 38.0186 22.1612L39.2454 23.7867C37.8651 24.0377 36.5633 24.6345 35.4394 25.5471C31.9324 28.3959 31.2762 33.4835 33.9462 37.1298L38.4006 43.2121C37.2875 43.4678 36.237 43.9735 35.3148 44.7122C32.1556 47.2425 31.4944 51.8269 33.8091 55.1484L36.0141 58.312L28.9211 65.3255C28.0055 66.2313 27.9965 67.7081 28.9016 68.6244C29.3575 69.0863 29.9584 69.3177 30.5598 69.3177C31.1516 69.3177 31.744 69.0934 32.1981 68.6443L76.4819 24.8566C77.6276 23.7238 79.4658 23.6775 80.6671 24.7502C81.2922 25.3082 81.654 26.0771 81.6863 26.9147C81.7186 27.7521 81.4175 28.5464 80.8378 29.1511L60.3726 50.3684C59.4753 51.2922 59.4961 52.769 60.4192 53.667C60.8721 54.1077 61.4583 54.327 62.0439 54.327C62.6516 54.327 63.2586 54.0906 63.7158 53.6203L90.6091 25.9362C92.0227 24.4803 94.3234 24.3907 95.8468 25.7328C96.6278 26.4208 97.0841 27.3726 97.1323 28.4127C97.1799 29.4531 96.8131 30.4428 96.0985 31.1999L68.4928 60.4479C67.6086 61.3844 67.6508 62.8609 68.587 63.7458C69.0374 64.1716 69.6127 64.3825 70.1871 64.3825C70.806 64.3825 71.4239 64.1374 71.882 63.6515L106.082 27.4165C107.2 26.2323 109.044 26.1344 110.281 27.1928C111.54 28.2702 111.703 30.1847 110.645 31.4602L78.9613 69.3416C78.1308 70.3264 78.2555 71.7979 79.2395 72.629C80.223 73.4601 81.6941 73.3353 82.5243 72.3509L111.464 38.0365C112.604 36.685 114.553 36.3279 116.096 37.187C117.024 37.7033 117.668 38.5581 117.906 39.5935C118.146 40.6293 117.942 41.6796 117.334 42.5508L86.6999 86.4614C85.9629 87.5177 86.2212 88.9721 87.2768 89.7095C87.6833 89.9935 88.1483 90.1297 88.6089 90.1297C89.345 90.1297 90.0692 89.7817 90.5224 89.1322L92.3012 86.5824C94.3045 89.3335 97.464 91.1708 100.951 91.3904C101.205 91.4062 101.458 91.4143 101.71 91.4143C104.678 91.4143 107.475 90.3105 109.654 88.2626C111.985 86.0723 113.322 82.9815 113.322 79.7828C113.322 79.3722 113.3 78.9598 113.257 78.5511C119.843 77.1455 124.554 71.3649 124.554 64.5507C124.555 58.99 121.414 54.0946 116.619 51.7261ZM53.0332 11.0936C53.6965 10.2634 54.6457 9.77106 55.7059 9.70729C56.7665 9.64353 57.7673 10.0186 58.5248 10.7636L62.425 14.598C59.8778 15.5479 57.735 17.3317 56.3235 19.6144L53.1 15.8055C51.9577 14.4565 51.9294 12.4749 53.0332 11.0936ZM39.3794 54.9845L37.6335 52.4794C36.7187 51.1665 36.9798 49.3545 38.2287 48.3545C38.8833 47.8301 39.7011 47.6021 40.5332 47.7122C41.3634 47.8223 42.0938 48.2549 42.5889 48.9305L43.8126 50.6011L39.3794 54.9845ZM47.1652 47.2858L37.7075 34.3718C36.5083 32.7342 36.8027 30.4491 38.3779 29.1694C39.186 28.5129 40.2018 28.2208 41.2331 28.3468C42.2657 28.4724 43.1795 28.999 43.8064 29.8298L52.7858 41.7278L47.1652 47.2858ZM56.1318 38.4197L47.9447 27.5717L47.5276 27.0193L41.7395 19.3497C40.7588 18.0499 40.9689 16.2135 42.2172 15.1697C43.4885 14.1063 45.4019 14.2634 46.4832 15.5199L54.5624 24.9076C54.531 25.2631 54.5127 25.6224 54.5127 25.986C54.5127 29.7548 56.2415 33.2244 59.0936 35.4909L56.1318 38.4197ZM87.2659 22.684L85.81 24.1826C85.3742 23.08 84.6848 22.0853 83.7716 21.2691C80.738 18.5603 76.0971 18.6779 73.2049 21.5376L62.4498 32.1719C60.4255 30.7965 59.175 28.4998 59.175 25.9854C59.175 21.8651 62.5207 18.5121 66.636 18.5037H66.6615C68.2022 18.5037 69.531 17.5302 69.968 16.0804C70.6627 13.7775 72.8282 12.1688 75.2346 12.1688C77.1788 12.1688 78.9408 13.1651 79.9479 14.8341C80.4648 15.6907 81.3251 16.2789 82.3076 16.4478C83.2954 16.617 84.309 16.3476 85.0883 15.7069C86.1379 14.8447 87.4701 14.4036 88.8303 14.464C91.5835 14.5868 93.8833 16.8356 94.0657 19.5836C94.0785 19.7734 94.0791 19.9615 94.0732 20.1482C91.6233 19.9354 89.1072 20.7889 87.2659 22.684ZM111.819 74.0756C110.768 74.2482 109.85 74.819 109.234 75.683C108.625 76.5356 108.386 77.5729 108.561 78.6046C108.627 78.9918 108.66 79.3884 108.66 79.7828C108.66 81.7268 107.879 83.5302 106.463 84.8617C105.047 86.1917 103.197 86.8576 101.244 86.7342C98.5829 86.5668 96.2406 84.8166 95.2466 82.3619L113.906 55.6165C117.495 57.0762 119.892 60.5602 119.892 64.5511C119.892 69.3021 116.497 73.308 111.819 74.0756Z" fill="#7D5A50"/>
<path d="M145.1 117.267C145.1 115.85 144.745 114.444 144.075 113.201C143.572 112.269 143.439 111.18 143.702 110.134C143.953 109.135 144.06 108.102 144.02 107.063C143.809 101.587 139.365 97.0321 133.903 96.6934C130.88 96.5065 128.013 97.541 125.817 99.6063C123.652 101.643 122.41 104.516 122.41 107.489C122.41 110.795 123.893 113.876 126.478 115.942C127.315 116.61 127.864 117.545 128.025 118.571C128.06 118.794 128.105 119.023 128.16 119.252C129.029 122.875 132.214 125.584 135.904 125.84C136.111 125.854 136.317 125.861 136.522 125.861C138.704 125.861 140.761 125.053 142.369 123.551C144.105 121.932 145.1 119.641 145.1 117.267ZM139.189 120.141C138.385 120.892 137.331 121.262 136.227 121.186C134.545 121.07 133.092 119.826 132.694 118.165C132.669 118.061 132.648 117.957 132.632 117.852C132.29 115.668 131.137 113.694 129.387 112.296C127.916 111.121 127.073 109.369 127.073 107.489C127.073 105.774 127.761 104.182 129.011 103.006C130.163 101.923 131.644 101.338 133.218 101.338C133.35 101.338 133.482 101.342 133.614 101.351C136.717 101.543 139.241 104.132 139.361 107.244C139.384 107.838 139.323 108.428 139.18 108.996V108.996C138.632 111.176 138.914 113.456 139.972 115.418C140.281 115.99 140.437 116.612 140.437 117.268C140.437 118.369 139.994 119.389 139.189 120.141Z" fill="#7D5A50"/>
</g>
<defs>
<clipPath id="clip0_87_87">
<rect width="159.137" height="159.247" fill="white"/>
</clipPath>
</defs>
</svg>
