<svg width="40" height="40" viewBox="0 0 40 40" fill="none" xmlns="http://www.w3.org/2000/svg">
<path fill-rule="evenodd" clip-rule="evenodd" d="M32.9479 6.95357C29.5176 3.51921 24.9555 1.62701 20.0954 1.625C10.0805 1.625 1.92987 9.77541 1.92584 19.7929C1.9245 22.9952 2.76105 26.1212 4.35111 28.8766L1.77344 38.2917L11.4054 35.765C14.0594 37.2127 17.0473 37.9757 20.088 37.9766H20.0956C30.1093 37.9766 38.2608 29.8255 38.2646 19.8075C38.2667 14.9525 36.3785 10.3877 32.9479 6.95357ZM20.0954 34.9081H20.0891C17.3794 34.907 14.7218 34.1787 12.4028 32.8031L11.8516 32.4757L6.13588 33.9751L7.6615 28.4024L7.30231 27.831C5.79057 25.4266 4.99229 22.6475 4.99363 19.7941C4.99676 11.4678 11.7715 4.69368 20.1014 4.69368C24.1351 4.69503 27.9269 6.26786 30.778 9.12238C33.6292 11.9769 35.1984 15.7711 35.1971 19.8064C35.1935 28.1334 28.4192 34.9081 20.0954 34.9081ZM28.3789 23.5977C27.9251 23.3703 25.6929 22.2724 25.2767 22.1206C24.8609 21.9691 24.5578 21.8937 24.2555 22.348C23.9527 22.8023 23.0828 23.8251 22.8178 24.1279C22.5529 24.4309 22.2883 24.4689 21.8342 24.2416C21.3802 24.0144 19.9174 23.5348 18.1832 21.9882C16.8338 20.7844 15.9227 19.2977 15.6577 18.8434C15.3932 18.3886 15.6555 18.1666 15.8569 17.9169C16.3483 17.3066 16.8405 16.6667 16.9918 16.364C17.1433 16.0609 17.0674 15.7957 16.9537 15.5686C16.8405 15.3414 15.9325 13.1068 15.5543 12.1975C15.1855 11.3127 14.8115 11.4322 14.5327 11.4183C14.2682 11.4051 13.9654 11.4024 13.6626 11.4024C13.36 11.4024 12.8681 11.5159 12.4518 11.9706C12.0358 12.4251 10.8631 13.5233 10.8631 15.7579C10.8631 17.9925 12.4899 20.1512 12.7168 20.4543C12.9437 20.7573 15.9182 25.3429 20.4722 27.3091C21.5554 27.7773 22.4009 28.0564 23.0604 28.2656C24.1481 28.6112 25.1375 28.5624 25.9199 28.4456C26.7922 28.3151 28.6056 27.3472 28.9843 26.2868C29.3625 25.2263 29.3625 24.3174 29.2488 24.1279C29.1356 23.9385 28.8328 23.8251 28.3789 23.5977Z" fill="#7D5A50"/>
</svg>
